<?xml version="1.0" encoding="UTF-8"?>
<svg width="40" height="40" viewBox="0 0 40 40" fill="none" xmlns="http://www.w3.org/2000/svg">
  <rect width="40" height="40" rx="20" fill="#FFFFFF"/>
  <path d="M13 14H27C27.5523 14 28 14.4477 28 15V25C28 25.5523 27.5523 26 27 26H13C12.4477 26 12 25.5523 12 25V15C12 14.4477 12.4477 14 13 14Z" fill="#F1F3F4"/>
  <path d="M20.5 17H16C15.4477 17 15 17.4477 15 18V22C15 22.5523 15.4477 23 16 23H20.5C22.433 23 24 21.433 24 19.5C24 17.567 22.433 16 20.5 16" fill="#4285F4"/>
  <path d="M20.5 17H24.5C25.0523 17 25.5 17.4477 25.5 18V22C25.5 22.5523 25.0523 23 24.5 23H20.5" fill="#34A853"/>
  <path d="M20.5 20C20.5 21.1046 19.6046 22 18.5 22C17.3954 22 16.5 21.1046 16.5 20C16.5 18.8954 17.3954 18 18.5 18C19.6046 18 20.5 18.8954 20.5 20Z" fill="#FBBC04"/>
</svg> 