<?xml version="1.0" encoding="UTF-8"?>
<svg width="40" height="40" viewBox="0 0 40 40" fill="none" xmlns="http://www.w3.org/2000/svg">
  <rect width="40" height="40" rx="20" fill="#5F259F"/>
  <path d="M20 12C23.866 12 27 15.134 27 19C27 22.866 23.866 26 20 26C16.134 26 13 22.866 13 19C13 15.134 16.134 12 20 12ZM20 14C17.239 14 15 16.239 15 19C15 21.761 17.239 24 20 24C22.761 24 25 21.761 25 19C25 16.239 22.761 14 20 14Z" fill="white"/>
  <path d="M20 16C21.657 16 23 17.343 23 19C23 20.657 21.657 22 20 22C18.343 22 17 20.657 17 19C17 17.343 18.343 16 20 16Z" fill="white"/>
  <path d="M20 17.5C20.8284 17.5 21.5 18.1716 21.5 19C21.5 19.8284 20.8284 20.5 20 20.5C19.1716 20.5 18.5 19.8284 18.5 19C18.5 18.1716 19.1716 17.5 20 17.5Z" fill="#5F259F"/>
</svg> 